<?xml version="1.0" encoding="UTF-8" standalone="no"?>
<!-- Created with Inkscape (http://www.inkscape.org/) -->

<svg
   version="1.1"
   id="svg1"
   width="1536"
   height="1024"
   viewBox="0 0 1536 1024"
   xmlns="http://www.w3.org/2000/svg"
   xmlns:svg="http://www.w3.org/2000/svg">
  <defs
     id="defs1" />
  <g
     id="g1">
    <path
       style="fill:#f5a826;stroke:none"
       d="m 565,192.79218 c -11.75995,3.45428 -28.97888,19.35144 -32.32642,31.20782 -4.24798,15.04578 -1.26312,35.54944 0.10907,51 2.4347,27.41449 3.5196,54.70233 7.81208,82 6.93994,44.13403 16.25866,87.56018 30.40527,130 5.26257,15.78772 9.6167,34.82385 18.56476,48.95947 9.40344,14.85504 32.35736,26.50135 47.43524,34.81397 46.38898,25.57495 95.1698,44.16601 148,28.48486 27.67053,-8.21326 53.60504,-21.58191 78,-36.82526 10.87195,-6.79339 24.31537,-14.47552 32.44379,-24.57 C 907.07397,523.4198 912.39844,496.5993 917.73663,479 c 14.70826,-48.49091 25.12452,-97.66864 31.20502,-148 3.2135,-26.59979 4.91467,-53.22668 5.06091,-80 0.0869,-15.90002 2.78388,-27.24933 -9.14648,-39.98145 -6.3067,-6.73053 -15.60462,-16.03076 -24.85608,-18.32074 -6.74628,-1.66992 -15.28217,1.10969 -22,2.21863 -14.2749,2.35645 -28.64117,4.2934 -43,6.02521 -64.30237,7.75555 -130.50592,8.72333 -195,2.84168 -22.43628,-2.04615 -44.65576,-5.10456 -67,-7.96296 -8.42767,-1.07812 -19.66663,-5.47595 -28,-3.02819 m 52,190.5473 c 26.97699,-3.42029 73.43762,3.04199 92.84186,23.70361 C 732.03363,430.67285 703.8089,470.42877 677,474.5188 650.02277,478.63452 613.45703,465.22113 598.29724,441.99927 584.06293,420.19507 586.7597,387.17352 617,383.33948 m 230,-0.0167 c 12.40613,-1.35827 28.53021,-1.18719 38.95691,6.56141 16.75873,12.45422 10.64252,39.44451 0.63751,54.11572 C 873.10913,463.7746 844.81097,473.37402 822,475.67651 792.7923,478.62463 754.14825,440.21576 772.77228,411.01874 786.48224,389.52557 823.98169,385.84296 847,383.32275 M 596,611.46497 c -33.66608,4.18805 -30.72943,53.15081 4,49.29815 33.53772,-3.72046 31.00354,-53.65259 -4,-49.29815 M 446,707 c 1.12787,-8.25928 1.70129,-18.04163 6.76227,-24.97864 C 464.14682,666.41663 496.93701,673 514,673 c 7.3905,0 23.94739,3.09827 29.07904,-3.36523 6.12555,-7.71534 6.04242,-26.04053 7.65735,-35.63477 0.61188,-3.63501 1.55731,-8.25208 -2.10913,-10.61646 C 541.80042,618.98108 525.92883,622 518,622 c -28.84174,0 -62.70767,-5.03833 -89,9.35474 -42.33923,23.17755 -41.85071,87.62219 -49.08795,129.64526 -3.15759,18.33447 -6.43152,36.65051 -9.4957,55 -0.85956,5.14734 -4.32168,15.03058 1.9111,18.06042 C 377.79453,836.71802 387.04556,835 393,835 c 7.41132,0 21.1821,2.62671 27.65335,-1.38354 4.89984,-3.03638 4.99268,-11.53577 5.90854,-16.61646 2.75958,-15.30884 5.11981,-30.69031 7.87622,-46 0.86118,-4.78314 0.63419,-14.74756 5.04474,-17.74023 C 444.03925,750.16809 453.716,752 459,752 h 46 c 5.43427,0 13.89923,1.54346 18.7345,-1.38354 7.24194,-4.38392 8.10357,-25.82557 8.91571,-33.61628 0.37732,-3.61944 -0.0661,-7.52636 -3.79804,-9.17852 C 522.26276,704.90442 511.11975,707 504,707 c -19.14615,0 -38.93613,-1.4494 -58,0 m 455,-24 c -12.51727,-7.48181 -28.82672,-8.56653 -43,-7.09583 C 798.30823,682.0979 749.08167,749.92371 786.6911,805 c 5.36621,7.8584 12.27368,14.21851 20.3089,19.27576 43.50702,27.3825 106.12988,5.11242 129.53186,-38.27576 13.65961,-25.32544 15.42926,-58.099 20.65887,-86 3.49061,-18.62311 6.55939,-37.32239 9.72809,-56 0.86621,-5.10571 4.86353,-14.89917 1.12299,-19.39575 C 963.67004,619.34894 949.15186,622 943,622 c -7.59375,0 -22.03943,-2.75537 -28.64233,1.38354 -4.61084,2.89026 -4.79786,10.80762 -5.60675,15.61646 -2.46814,14.67285 -5.73768,29.25745 -7.75092,44 m 183,-14 5,3 v 11 h 3 l 4,-14 h -12 m 14,15 c 3.8555,-1.53363 3.7432,-4.14252 4,-8 l 3,8 5,-8 h 1 v 8 l 4,-1 c -0.4857,-12.92578 -1.3856,-14.91681 -10,-5 l -2,-9 c -6.7257,1.72168 -5,9.35535 -5,15 M 710,672.45673 c -10.91699,1.01007 -21.49084,2.26165 -32,5.59942 -44.38556,14.09705 -48.81976,54.63556 -56.59955,93.94385 -3.08612,15.59314 -5.57049,31.3418 -8.31433,47 -0.98132,5.60028 -3.76941,13.88757 3.96539,15.63477 9.79657,2.21295 21.91663,0.375 31.94849,0.36511 4.17126,-0.004 9.23401,0.51947 12.51715,-2.60413 4.64557,-4.41992 4.54456,-14.43689 5.5708,-20.39575 3.04614,-17.68738 6.5293,-35.30011 9.49585,-53 3.03491,-18.10779 8.51782,-50.3634 35.41345,-41.01453 10.66034,3.70545 10.41846,13.79572 8.60218,23.01453 -4.25623,21.60278 -8.04114,43.31726 -11.86017,65 -1.42633,8.09796 -9.7898,27.6842 3.26916,28.89252 9.69794,0.89734 34.64917,4.01196 42.56818,-2.05866 4.11517,-3.15466 4.05804,-10.15289 4.83972,-14.83386 l 6.33405,-37 C 771.12262,748.76648 788.26251,702.33044 752,681.92517 c -5.87207,-3.30432 -12.43677,-5.44726 -19,-6.8866 -7.29602,-1.60009 -15.5238,-3.27356 -23,-2.58184 m 324,-0.011 c -34.5108,4.26807 -64.41492,22.00958 -77.51678,55.55432 -6.61255,16.93011 -8.13782,36.2478 -11.68317,54 -2.38739,11.95422 -4.19483,24.01489 -6.422,36 -0.7901,4.25177 -3.20819,10.55359 -0.17138,14.39575 2.79522,3.53644 8.83923,2.60303 12.79333,2.60425 11.34174,0.003 23.7677,1.43445 34.99158,-0.20618 9.70953,-1.41925 9.29748,-14.23022 10.80847,-21.79382 4.30675,-21.55853 5.71035,-45.11755 12.59805,-66 3.7474,-11.36182 11.3487,-18.85132 23.6019,-19.85608 5.8976,-0.48364 14.7628,1.64923 19.5012,-2.82934 6.7975,-6.42469 7.0443,-29.17634 8.6802,-38.31458 0.6372,-3.55945 1.6322,-8.37378 -1.0032,-11.39575 -4.5444,-5.21106 -19.9986,-2.92285 -26.1782,-2.15857 m -464.8927,5.27649 c -5.48236,1.85113 -5.74414,8.43127 -6.70673,13.27783 -2.50915,12.63306 -4.68328,25.33447 -7.02191,38 -4.61108,24.97253 -9.07995,49.98633 -13.46478,75 -1.20953,6.89984 -6.54651,21.37262 -2.65155,27.71594 2.3999,3.90845 7.80084,3.27887 11.73767,3.28388 10.55334,0.0135 24.8761,2.50665 34.97058,-0.72199 6.02484,-1.92706 6.49536,-7.91491 7.46741,-13.27783 2.29333,-12.6524 4.46753,-25.32788 6.64996,-38 4.30921,-25.02148 9.13684,-49.96069 13.32825,-75 1.11542,-6.66327 6.73877,-21.58844 3.15973,-27.63477 -2.29444,-3.87609 -7.72443,-3.35388 -11.57593,-3.3645 -10.67401,-0.0294 -25.7384,-2.70709 -35.8927,0.72144 M 858,723.33966 C 882.78809,720.21936 900.72229,742.65833 891.47552,766 886.10797,779.54938 873.22552,788.09564 859,789.66956 837.03894,792.0993 819.40521,772.43732 825.20209,751 829.34705,735.67175 842.49878,725.29089 858,723.33966 Z"
       id="path1" />
  </g>
</svg>
