<?xml version="1.0" encoding="UTF-8" standalone="no"?>
<!-- Created with Inkscape (http://www.inkscape.org/) -->

<svg
   version="1.1"
   id="svg1"
   width="1536"
   height="1024"
   viewBox="0 0 1536 1024"
   xmlns="http://www.w3.org/2000/svg"
   xmlns:svg="http://www.w3.org/2000/svg">
  <defs
     id="defs1" />
  <g
     id="g1">
    <path
       style="fill:#f5a826;stroke:none"
       d="m 565,192.79218 c -11.75995,3.45428 -28.97888,19.35144 -32.32642,31.20782 -4.24798,15.04578 -1.26312,35.54944 0.10907,51 2.4347,27.41449 3.5196,54.70233 7.81208,82 6.93994,44.13403 16.25866,87.56018 30.40527,130 5.26257,15.78772 9.6167,34.82385 18.56476,48.95947 9.40344,14.85504 32.35736,26.50135 47.43524,34.81397 46.38898,25.57495 95.1698,44.16601 148,28.48486 27.67053,-8.21326 53.60504,-21.58191 78,-36.82526 10.87195,-6.79339 24.31537,-14.47552 32.44379,-24.57 C 907.07397,523.4198 912.39844,496.5993 917.73663,479 c 14.70826,-48.49091 25.12452,-97.66864 31.20502,-148 3.2135,-26.59979 4.91467,-53.22668 5.06091,-80 0.0869,-15.90002 2.78388,-27.24933 -9.14648,-39.98145 -6.3067,-6.73053 -15.60462,-16.03076 -24.85608,-18.32074 -6.74628,-1.66992 -15.28217,1.10969 -22,2.21863 -14.2749,2.35645 -28.64117,4.2934 -43,6.02521 -64.30237,7.75555 -130.50592,8.72333 -195,2.84168 -22.43628,-2.04615 -44.65576,-5.10456 -67,-7.96296 -8.42767,-1.07812 -19.66663,-5.47595 -28,-3.02819 m 52,190.5473 c 26.97699,-3.42029 73.43762,3.04199 92.84186,23.70361 C 732.03363,430.67285 703.8089,470.42877 677,474.5188 650.02277,478.63452 613.45703,465.22113 598.29724,441.99927 584.06293,420.19507 586.7597,387.17352 617,383.33948 m 230,-0.0167 c 12.40613,-1.35827 28.53021,-1.18719 38.95691,6.56141 16.75873,12.45422 10.64252,39.44451 0.63751,54.11572 C 873.10913,463.7746 844.81097,473.37402 822,475.67651 792.7923,478.62463 754.14825,440.21576 772.77228,411.01874 786.48224,389.52557 823.98169,385.84296 847,383.32275"
       id="path1" />
  </g>
</svg>
